<svg version="1.2" xmlns="http://www.w3.org/2000/svg" viewBox="0 0 512 512" width="512" height="512">
	<style>
		.s0 { fill: #ffffff } 
	</style>
	<path id="Path 0" class="s0" d="m234.5 11.09c-5.5 0.44-14.5 1.53-20 2.43-5.5 0.89-14.72 2.77-20.5 4.17-5.78 1.4-15.45 4.23-21.5 6.28-6.05 2.05-14.38 5.17-18.5 6.94-4.13 1.76-12.68 5.91-19 9.22-6.32 3.31-16.45 9.32-22.5 13.36-6.05 4.05-14.83 10.42-19.5 14.17-4.67 3.75-13.48 11.77-19.57 17.83-6.09 6.05-14.48 15.29-18.64 20.51-4.16 5.22-10.57 14-14.24 19.5-3.67 5.5-10.38 17.43-14.92 26.5-4.88 9.78-10.12 22.2-12.86 30.5-2.54 7.7-5.77 19.18-7.16 25.5-1.4 6.32-3.28 17.13-4.18 24-1.27 9.76-1.52 17.66-1.13 36 0.38 17.59 1.03 26.39 2.58 35 1.14 6.32 3.17 15.77 4.53 21 1.35 5.23 4.01 14 5.9 19.5 1.89 5.5 5.32 14.27 7.61 19.5 2.29 5.23 6.13 13.1 8.53 17.5 2.4 4.4 7.48 12.73 11.28 18.5 3.8 5.77 10.54 15 14.98 20.5 4.44 5.5 13.18 14.98 19.43 21.06 6.25 6.08 14.96 13.92 19.36 17.42 4.4 3.5 13.4 9.93 20 14.27 6.6 4.35 18.07 10.93 25.5 14.62 7.43 3.69 18.22 8.45 24 10.57 5.78 2.13 12.3 4.05 14.5 4.27 2.58 0.26 5.24-0.24 7.5-1.41 1.96-1.01 4.27-3.34 5.25-5.3 1.51-3.02 1.75-6.59 1.75-26.25v-22.75c-5.81 0.8-14.03 1.31-22 1.65-11.92 0.51-15.92 0.3-22.5-1.17-4.4-0.98-11.38-3.48-15.5-5.56-4.12-2.07-9.77-5.94-12.54-8.6-2.77-2.65-6.44-6.84-8.16-9.32-1.72-2.48-4.58-7.88-6.35-12-1.78-4.13-5.08-10.59-7.34-14.36-2.26-3.78-6.81-9.52-10.11-12.76-3.3-3.25-8.43-7.59-11.41-9.64-2.98-2.06-6.35-5.01-7.5-6.57l-2.09-2.84c4.64-3.77 6.07-4 12.5-3.64 5.82 0.33 9.07 1.16 14.5 3.72 4.56 2.14 9.2 5.44 13.32 9.44 3.47 3.38 8.87 9.94 12 14.57 3.12 4.64 7.93 10.4 10.68 12.8 2.75 2.41 7.7 5.66 11 7.24 3.3 1.58 8.93 3.43 12.5 4.11 3.85 0.73 9.76 1.01 14.5 0.67 4.75-0.34 11.41-1.73 16.39-3.41l8.39-2.83c2.9-11.63 4.84-17.25 6.18-20 1.34-2.75 4.03-6.91 5.99-9.25 1.95-2.34 3.44-4.47 3.3-4.73-0.14-0.26-4.75-1.16-10.25-2-5.5-0.84-14.5-2.64-20-4-5.5-1.36-13.82-3.97-18.5-5.79-4.68-1.82-11.65-5.08-15.5-7.24-3.85-2.15-10.15-6.47-14-9.6-3.85-3.12-9.47-8.74-12.5-12.5-3.03-3.75-7.41-10.21-9.74-14.36-2.32-4.14-5.77-12.26-7.66-18.03-1.89-5.77-4.22-15-5.17-20.5-1.18-6.77-1.76-15.66-1.81-27.5-0.06-15.02 0.25-18.78 2.2-26.5 1.24-4.95 4.43-13.5 7.07-19 2.64-5.5 7.41-13.38 10.59-17.5l5.79-7.5c-2.49-7.75-3.73-13.6-4.35-18-0.63-4.45-0.86-11.77-0.52-16.5 0.34-4.68 1.58-12.32 2.75-17 1.17-4.67 2.74-9.96 3.49-11.75 1.29-3.08 1.63-3.25 6.61-3.24 2.89 0 8.85 0.88 13.25 1.94 4.4 1.07 10.93 3.14 14.5 4.61 3.57 1.46 9.65 4.25 13.5 6.19 3.85 1.94 10.6 5.77 15 8.49l8 4.97c14.72-3.33 23.28-4.97 28.5-5.79 5.22-0.82 17.6-1.76 27.5-2.09 11.13-0.37 22.77-0.14 30.5 0.6 6.87 0.66 18.12 2.34 25 3.72 6.87 1.39 13.4 2.77 14.5 3.07 1.33 0.36 5.03-1.31 11-4.95 4.95-3.01 12.15-7.06 16-8.98 3.85-1.92 10.15-4.67 14-6.11 3.85-1.44 9.93-3.3 13.5-4.14 3.57-0.83 8.86-1.52 11.75-1.53 4.98-0.01 5.32 0.16 6.61 3.24 0.75 1.79 2.41 7.3 3.7 12.25 1.92 7.36 2.34 11.45 2.3 22.5-0.04 10.64-0.51 15.14-2.21 21.25l-2.15 7.75c7.87 9.69 11.92 15.65 14.08 19.5 2.16 3.85 5.24 11.05 6.84 16 1.6 4.95 3.46 12.82 4.14 17.5 0.8 5.53 1.03 13.57 0.63 23-0.33 7.98-1.51 19.23-2.63 25-1.11 5.77-3.17 13.88-4.58 18-1.4 4.13-4.46 11.1-6.8 15.5-2.33 4.4-6.3 10.7-8.81 14-2.51 3.3-7 8.21-9.97 10.91-2.97 2.7-8.55 6.95-12.4 9.44-3.85 2.5-10.15 5.98-14 7.75-3.85 1.76-11.5 4.58-17 6.26-5.5 1.68-14.84 3.97-20.75 5.1-5.91 1.12-11.99 2.05-13.5 2.06-1.51 0-3.43 0.42-4.25 0.92-1.24 0.74-0.85 1.61 2.25 4.98 2.06 2.24 4.93 6.44 6.37 9.33 1.45 2.89 3.53 8.63 4.63 12.75 1.86 6.92 2.02 10.82 2.13 50.5 0.11 38.22 0.3 43.28 1.78 45.5 0.91 1.38 3.16 3.14 5 3.92 1.84 0.78 5.25 1.34 7.59 1.25 2.34-0.09 8.64-1.78 14-3.74 5.36-1.96 16.5-6.89 24.75-10.94 8.25-4.06 19.95-10.6 26-14.54 6.05-3.94 15.27-10.6 20.5-14.78 5.23-4.19 13.5-11.45 18.38-16.14 4.88-4.69 12.66-13.03 17.29-18.53 4.62-5.5 12.15-15.63 16.73-22.5 4.57-6.88 10.37-16.32 12.88-21 2.5-4.68 6.56-13.23 9.01-19 2.46-5.77 6.27-16.13 8.47-23 2.21-6.88 4.94-17 6.08-22.5 1.14-5.5 2.77-15.29 3.62-21.75 0.92-7.04 1.54-19.37 1.54-30.75 0-11.33-0.62-23.74-1.54-30.75-0.84-6.46-2.67-16.93-4.07-23.25-1.39-6.32-4.53-17.57-6.98-25-2.55-7.75-8.03-20.74-12.87-30.5-4.63-9.35-11.42-21.5-15.08-27-3.66-5.5-10.07-14.28-14.24-19.5-4.17-5.22-12.56-14.46-18.65-20.51-6.09-6.06-14.89-14.09-19.57-17.84-4.68-3.75-13.9-10.42-20.5-14.82-6.6-4.39-19.2-11.53-28-15.86-8.8-4.34-21.4-9.73-28-11.99-6.6-2.26-17.18-5.39-23.5-6.96-6.32-1.57-16-3.57-21.5-4.45-5.5-0.88-15.4-2.04-22-2.57-6.6-0.53-16.27-0.91-21.5-0.84-5.22 0.06-14 0.48-19.5 0.93z"/>
</svg>