<svg version="1.2" xmlns="http://www.w3.org/2000/svg" viewBox="0 0 512 512" width="512" height="512">
	<style>
		.s0 { fill: #ffffff } 
	</style>
	<path id="Path 0" fill-rule="evenodd" class="s0" d="m254.25 0.13c10.86-0.07 24.14 0.34 29.5 0.92 5.36 0.58 15.38 2.18 22.25 3.56 6.88 1.38 16.55 3.66 21.5 5.07 4.95 1.42 14.18 4.57 20.5 7.01 6.32 2.43 17.8 7.68 25.5 11.66 7.7 3.99 18.27 10.09 23.5 13.57 5.23 3.48 13.77 9.7 19 13.84 5.23 4.13 15.35 13.42 22.5 20.65 7.15 7.22 16.85 18.29 21.56 24.61 4.71 6.31 10.84 15.08 13.62 19.48 2.79 4.4 7.88 13.63 11.32 20.5 3.45 6.88 8.17 17.45 10.5 23.5 2.34 6.05 5.4 15.05 6.82 20 1.41 4.95 3.69 14.63 5.07 21.5 1.38 6.88 2.98 16.89 3.56 22.25 0.58 5.36 1.05 17.85 1.05 27.75 0 9.9-0.47 22.39-1.05 27.75-0.58 5.36-2.18 15.38-3.55 22.25-1.37 6.88-3.9 17.23-5.61 23-1.72 5.77-4.87 15-7.02 20.5-2.14 5.5-7.15 16.3-11.13 24-3.98 7.7-10.09 18.27-13.58 23.5-3.49 5.23-9.32 13.32-12.95 18-3.63 4.68-12.22 14.17-19.1 21.11-6.88 6.93-16.78 15.99-22.01 20.13-5.23 4.13-13.77 10.36-19 13.84-5.23 3.48-15.8 9.58-23.5 13.56-7.7 3.98-18.5 8.99-24 11.13-5.5 2.15-14.73 5.3-20.5 7.02-5.77 1.71-16.12 4.24-23 5.61-6.87 1.37-16.89 2.97-22.25 3.55-5.36 0.58-17.85 1.05-27.75 1.05-9.9 0-22.39-0.47-27.75-1.05-5.36-0.58-15.37-2.17-22.25-3.53-6.87-1.36-17-3.84-22.5-5.5-5.5-1.66-14.28-4.64-19.5-6.62-5.22-1.98-15.35-6.51-22.5-10.08-7.15-3.56-16.6-8.76-21-11.55-4.4-2.8-11.6-7.75-16-11.01-4.4-3.26-11.6-8.97-16-12.69-4.4-3.71-11.84-10.74-16.53-15.61-4.69-4.87-11.95-13.13-16.13-18.36-4.18-5.23-10.44-13.77-13.92-19-3.48-5.23-9.58-15.8-13.57-23.5-3.98-7.7-9.23-19.18-11.66-25.5-2.44-6.32-5.59-15.55-7.01-20.5-1.41-4.95-3.69-14.63-5.07-21.5-1.38-6.87-2.98-16.89-3.56-22.25-0.58-5.36-1.05-17.85-1.05-27.75 0-9.9 0.47-22.39 1.05-27.75 0.58-5.36 2.18-15.38 3.56-22.25 1.38-6.87 3.66-16.55 5.07-21.5 1.42-4.95 4.48-13.95 6.8-20 2.32-6.05 7.42-17.3 11.33-25 3.9-7.7 10.09-18.5 13.74-24 3.66-5.5 10.04-14.28 14.19-19.5 4.14-5.22 13.44-15.35 20.67-22.5 7.22-7.15 18.29-16.85 24.61-21.56 6.31-4.71 15.08-10.84 19.48-13.62 4.4-2.79 13.63-7.88 20.5-11.32 6.88-3.45 17.45-8.18 23.5-10.51 6.05-2.34 15.95-5.63 22-7.32 6.05-1.69 15.95-4 22-5.14 6.05-1.13 14.38-2.44 18.5-2.91 4.13-0.48 16.39-0.92 27.25-0.99zm-12.77 113.34c-2.21 2.22-4.57 5.83-5.23 8.03-0.91 2.97-1.22 22.61-1.25 76.5l-0.02 72.5c4.39 8.84 17.64 22.64 59.74 64.65 38.9 38.81 56.08 55.3 59.28 56.87 3.47 1.72 5.79 2.14 10.15 1.85 4.27-0.28 6.7-1.1 9.94-3.37 2.36-1.65 5.2-4.57 6.31-6.5 1.1-1.93 2.31-5.3 2.67-7.5 0.37-2.2 0.23-6.02-0.3-8.5-0.91-4.21-4.37-7.9-53.36-57l-52.4-52.5c-0.04-115.7-0.36-134.04-1.26-137-0.66-2.2-3.02-5.81-5.23-8.02-2.21-2.21-5.82-4.57-8.02-5.23-2.2-0.67-5.35-1.18-7-1.13-1.65 0.05-4.57 0.59-6.5 1.2-1.93 0.62-5.31 2.93-7.52 5.15z"/>
</svg>