<svg version="1.2" xmlns="http://www.w3.org/2000/svg" viewBox="0 0 512 512" width="512" height="512">
	<style>
		.s0 { fill: #ffffff } 
	</style>
	<path id="Path 0" fill-rule="evenodd" class="s0" d="m457.5 0.5l7.5 2.76c4.13 1.51 9.98 4.21 13 6 3.02 1.78 9.1 6.84 13.5 11.24 4.4 4.4 9.46 10.48 11.24 13.5 1.79 3.02 4.49 8.88 8.76 20.5v402l-2.72 8c-1.5 4.4-4.58 10.93-6.85 14.5-2.26 3.57-6.44 8.92-9.27 11.87-2.84 2.96-8.54 7.58-12.66 10.29-4.13 2.7-11.1 6.13-23.5 10.34h-401l-8-2.71c-4.4-1.5-11.38-4.91-15.5-7.59-4.13-2.67-10.2-7.79-13.5-11.36-3.3-3.58-7.46-8.94-9.24-11.92-1.79-2.98-4.49-8.79-8.76-20.42l-0.29-198.5c-0.27-180.07-0.14-199.15 1.32-205.5 0.9-3.85 3.48-10.82 5.75-15.5 3.37-6.95 5.78-10.15 13.17-17.53 6.79-6.77 10.92-9.96 16.55-12.8 4.12-2.07 10.65-4.62 14.5-5.67 6.78-1.83 13.41-1.89 406-1.5zm-334.75 100.32c-3.71 1.75-9.04 5.32-11.84 7.93-3.37 3.15-6.31 7.28-8.73 12.25-3.03 6.24-3.71 8.84-4.06 15.5-0.23 4.49 0.13 10.2 0.82 13 0.67 2.75 2.43 7.41 3.89 10.36 1.47 2.95 5.14 7.74 8.17 10.65 3.03 2.91 7.97 6.46 11 7.89 3.03 1.42 8.65 3.12 12.5 3.76 5.44 0.9 8.45 0.88 13.5-0.09 3.57-0.69 9.2-2.63 12.5-4.32 3.3-1.7 8.06-5.14 10.59-7.66 2.52-2.53 6.01-7.4 7.75-10.84 1.74-3.44 3.7-9.29 4.35-13 0.92-5.2 0.92-8.25 0.02-13.25-0.65-3.57-2.5-9.2-4.11-12.5-1.61-3.3-4.77-7.91-7.01-10.25-2.25-2.34-6.23-5.62-8.84-7.29-2.61-1.67-7-3.66-9.75-4.41-2.75-0.76-6.8-1.55-9-1.77-2.2-0.21-6.47-0.11-9.5 0.23-3.03 0.35-8.54 2.06-12.25 3.81zm180.75 103.13c-3.3 1.17-8.87 4.02-12.39 6.34-3.51 2.31-8.03 6.01-10.03 8.21-2 2.2-4.41 5.01-5.36 6.25-0.95 1.24-2.17 2.03-2.72 1.75-0.56-0.28-1-4.5-1-9.5 0-8.09-0.25-9.28-2.41-11.75l-2.41-2.75-55.18-0.5-6.5 5.84c-0.4 161.26-0.13 198.01 0.5 200.41 0.6 2.26 2.07 4.44 3.71 5.5 2.4 1.56 5.68 1.75 29.58 1.75h26.87l5.84-6.5c0-99.02 0.28-110.42 1.51-116.75 0.83-4.26 2.77-10.45 4.3-13.75 1.53-3.3 4.12-7.75 5.74-9.89 1.62-2.14 4.75-5.13 6.95-6.63 2.2-1.51 6.48-3.48 9.5-4.37 3.02-0.9 7.75-1.63 10.5-1.64 2.75-0.01 7.93 0.88 11.5 1.96 4.18 1.27 8.06 3.33 10.86 5.77 2.54 2.22 5.57 6.3 7.26 9.8 1.59 3.3 3.57 9.49 4.39 13.75 1.21 6.31 1.49 18.32 1.49 64.75v57l6 6h57.09l4.91-5c-0.64-126.97-0.94-138.73-2.31-145.5-0.88-4.4-2.57-11.15-3.75-15-1.18-3.85-3.73-10.15-5.67-14-1.93-3.85-5.37-9.42-7.64-12.38-2.27-2.96-6.83-7.41-10.13-9.9-3.3-2.48-8.7-5.76-12-7.27-3.3-1.51-8.7-3.51-12-4.43-4.01-1.12-11.14-1.81-21.5-2.07-10.66-0.27-17.69 0.04-22.5 0.99-3.85 0.76-9.7 2.34-13 3.51zm-195.55 5.8c-0.71 2.54-0.95 35.31-0.75 101.25 0.26 84.67 0.5 97.79 1.8 99.73 0.83 1.22 2.58 2.8 3.9 3.5 1.77 0.93 9.23 1.27 28.05 1.27 22.72 0 25.95-0.2 28.34-1.75 1.49-0.96 3.16-2.87 3.71-4.25 0.64-1.61 1-37.83 1-101.5v-99l-7-7c-49.73 0.01-51.72 0.14-54.75 2-2.18 1.34-3.6 3.24-4.3 5.75z"/>
</svg>