<svg version="1.2" xmlns="http://www.w3.org/2000/svg" viewBox="0 0 512 512" width="512" height="512">
	<style>
		.s0 { fill: #ffffff } 
	</style>
	<path id="Path 0" class="s0" d="m247 39.04c-4.13 0.44-10.43 1.55-14 2.47-3.57 0.92-9.65 3.11-13.5 4.88-3.85 1.77-9.68 4.99-12.96 7.16-3.27 2.17-8.4 6.2-11.39 8.95-3 2.75-7.35 7.47-9.68 10.5-2.34 3.03-6.07 8.88-8.3 13-2.23 4.13-5.25 11.55-6.72 16.5-1.96 6.62-2.8 12.17-3.21 21-0.34 7.49-0.09 14.44 0.66 18.5 0.66 3.57 2.14 9.43 3.29 13 1.15 3.57 3.58 9.43 5.39 13 1.82 3.57 4.68 8.53 6.37 11 1.68 2.47 5.86 7.36 9.3 10.87 3.44 3.5 8.95 8.3 12.25 10.67 3.3 2.36 9.38 5.91 13.5 7.87 4.13 1.95 11.1 4.54 15.5 5.73 6.49 1.77 10.73 2.18 22.5 2.18 11.77 0 16.01-0.41 22.5-2.18 4.4-1.19 11.38-3.78 15.5-5.73 4.13-1.96 10.2-5.51 13.5-7.87 3.3-2.37 8.81-7.17 12.25-10.67 3.44-3.51 7.62-8.4 9.3-10.87 1.69-2.47 4.55-7.43 6.37-11 1.81-3.57 4.24-9.43 5.39-13 1.15-3.57 2.63-9.43 3.29-13 0.75-4.06 1-11.01 0.66-18.5-0.41-8.83-1.25-14.38-3.21-21-1.47-4.95-4.49-12.37-6.72-16.5-2.23-4.12-5.96-9.97-8.3-13-2.33-3.03-6.68-7.75-9.68-10.5-2.99-2.75-8.12-6.78-11.39-8.95-3.28-2.17-9.11-5.39-12.96-7.16-3.85-1.77-9.7-3.9-13-4.75-3.3-0.84-8.48-1.8-11.5-2.13-3.02-0.33-7.3-0.75-9.5-0.93-2.2-0.18-7.37 0.02-11.5 0.46zm-45 195.95c-3.57 0.44-8.53 1.34-11 2.01-2.47 0.66-7.2 2.42-10.5 3.91-3.3 1.48-8.25 4.23-11 6.1-2.75 1.88-7.19 5.45-9.88 7.95-2.68 2.5-6.81 7.24-9.18 10.54-2.37 3.3-5.68 9.04-7.37 12.75-1.69 3.71-3.86 9.79-4.82 13.5-1.6 6.16-1.75 13.89-1.75 88.75 0 80.19 0.04 82.08 2 85.43 1.1 1.89 3.57 4.37 5.5 5.5 3.48 2.06 4.14 2.07 112 2.07 106.69 0 108.56-0.03 111.93-2 1.89-1.1 4.37-3.57 5.5-5.5 2.05-3.46 2.07-4.42 2.07-85.5 0-74.86-0.15-82.59-1.75-88.75-0.96-3.71-3.01-9.56-4.55-13-1.55-3.44-4.34-8.5-6.21-11.25-1.88-2.75-5.45-7.19-7.95-9.88-2.5-2.68-7.24-6.81-10.54-9.18-3.3-2.37-9.04-5.68-12.75-7.37-3.71-1.69-9.56-3.81-13-4.73-5.37-1.42-13.59-1.69-58.25-1.9-28.6-0.14-54.93 0.11-58.5 0.55zm-139.5 38.71c-1.65 0.22-6.6 1.5-11 2.84-4.4 1.34-10.56 3.91-13.69 5.7-3.13 1.79-8.08 5.25-11 7.68-2.92 2.44-7.34 6.83-9.81 9.76-2.48 2.93-6.05 8.14-7.95 11.57-1.9 3.44-4.6 9.4-5.99 13.25l-2.53 7c-0.57 102.78-0.5 105.25 1.42 111 1.1 3.3 3.32 8.02 4.93 10.5 1.61 2.48 5.11 6.5 7.77 8.95 2.67 2.45 7.55 5.7 10.85 7.22 3.3 1.53 9.15 3.23 13 3.78 3.85 0.56 21.51 1.02 39.25 1.03l32.25 0.02c-1.16-5.81-1.5-46.65-1.5-94.5 0-85.91 0.03-87.1 2.15-95 1.19-4.4 2.31-8.68 2.5-9.5 0.3-1.3-2.87-1.51-23.65-1.61-13.2-0.06-25.35 0.08-27 0.31zm336-0.24c-0.62 0.4-0.19 2.77 1.16 6.34 1.18 3.13 2.66 9.3 3.29 13.7 0.82 5.68 1.05 32.17 0.79 91.5-0.2 45.93-0.68 84.74-1.05 86.25l-0.69 2.75c49.99-0.03 67.65-0.49 71.5-1.05 3.85-0.55 9.7-2.25 13-3.78 3.3-1.52 8.18-4.77 10.85-7.22 2.66-2.45 6.16-6.47 7.77-8.95 1.61-2.48 3.83-7.2 4.93-10.5 1.92-5.75 1.99-8.22 1.71-58.5l-0.29-52.5c-3.92-10.85-6.62-16.81-8.52-20.25-1.9-3.43-5.44-8.61-7.87-11.5-2.44-2.89-6.85-7.27-9.81-9.75-2.96-2.48-7.95-5.97-11.08-7.76-3.13-1.79-9.29-4.44-13.69-5.9-7.65-2.52-9.16-2.65-34.5-3.08-14.57-0.24-26.95-0.15-27.5 0.2zm-308.5-151.47c-3.03 0.48-7.75 1.62-10.5 2.54-2.75 0.92-7.93 3.19-11.5 5.04-3.58 1.85-9.37 5.96-12.88 9.15-3.51 3.18-8.48 8.93-11.04 12.78-2.76 4.14-5.87 10.68-7.62 16-2.59 7.87-2.96 10.45-2.96 20.5 0.01 9.22 0.47 12.99 2.33 19 1.29 4.13 3.94 10.43 5.9 14 2.17 3.95 6.75 9.64 11.67 14.5 4.72 4.67 10.61 9.33 14.1 11.17 3.3 1.74 9.15 4.21 13 5.49 5.78 1.93 9.1 2.34 19 2.34 9.81 0 13.37-0.43 19.5-2.35 4.12-1.3 10.43-4.05 14-6.12 3.57-2.07 9.36-6.41 12.85-9.65 3.5-3.23 8.04-8.58 10.1-11.88 2.05-3.3 4.89-8.93 6.3-12.5 1.41-3.57 3.06-9.76 3.66-13.75 0.6-3.99 1.09-9.05 1.09-11.25 0-2.2-0.7-7.49-1.56-11.75-0.89-4.41-3.44-11.63-5.92-16.75-2.59-5.35-6.53-11.4-9.69-14.91-2.93-3.24-8.03-7.72-11.33-9.94-3.3-2.21-8.7-5.23-12-6.7-3.3-1.46-8.03-3.15-10.5-3.76-2.47-0.6-8.1-1.32-12.5-1.58-4.4-0.27-10.47-0.1-13.5 0.38zm315-0.41c-1.38 0.23-4.98 0.92-8 1.54-3.02 0.61-8.2 2.32-11.5 3.81-3.3 1.48-8.7 4.51-12 6.72-3.3 2.22-8.4 6.7-11.33 9.94-3.16 3.51-7.1 9.56-9.69 14.91-2.48 5.12-5.03 12.34-5.92 16.75-0.86 4.26-1.56 9.55-1.56 11.75 0 2.2 0.49 7.26 1.09 11.25 0.6 3.99 2.25 10.18 3.66 13.75 1.41 3.57 4.25 9.2 6.3 12.5 2.06 3.3 6.6 8.65 10.1 11.88 3.49 3.24 9.28 7.58 12.85 9.65 3.57 2.07 9.87 4.82 14 6.12 6.13 1.92 9.69 2.35 19.5 2.35 9.9 0 13.22-0.41 19-2.34 3.85-1.28 9.7-3.75 13-5.49 3.49-1.84 9.38-6.5 14.1-11.17 4.92-4.86 9.5-10.55 11.67-14.5 1.96-3.57 4.61-9.87 5.9-14 1.86-6.01 2.32-9.78 2.33-19 0-10.05-0.37-12.63-2.96-20.5-1.75-5.32-4.86-11.86-7.62-16-2.56-3.85-7.53-9.63-11.04-12.84-4.18-3.82-9.48-7.32-15.38-10.14-4.95-2.37-11.02-4.78-13.5-5.37-2.48-0.58-8.1-1.27-12.5-1.53-4.4-0.26-9.13-0.28-10.5-0.04z"/>
</svg>