<svg version="1.2" xmlns="http://www.w3.org/2000/svg" viewBox="0 0 512 512" width="512" height="512">
	<style>
		.s0 { fill: #ffffff } 
	</style>
	<path id="Path 0" class="s0" d="m138 75.04c-75.18 34.03-113.25 51.76-114.75 53.44-1.43 1.6-2.25 3.8-2.25 6.02 0 2.44 0.83 4.39 2.75 6.44 1.92 2.05 36.87 19.51 115.25 57.56 96.66 46.93 113.13 54.63 117 54.66 3.88 0.03 11.09-3.18 52.28-23.31 26.28-12.84 47.75-23.8 47.71-24.35-0.03-0.55-23.72-13.82-52.64-29.5-30.57-16.58-53.57-29.65-54.96-31.25-1.46-1.68-2.39-4.02-2.4-6 0-1.79 0.79-4.35 1.75-5.69 0.97-1.34 3.11-3 4.76-3.69 1.65-0.69 4.13-0.97 5.5-0.63 1.37 0.34 26.13 13.41 55 29.03 28.88 15.62 54.88 30.05 57.79 32.07 2.91 2.01 5.5 4.22 5.75 4.91 0.25 0.69 0.91 1.25 1.46 1.25 0.55 0 25.19-11.77 54.75-26.15 29.56-14.38 54.88-27.21 56.25-28.52 1.83-1.74 2.5-3.42 2.5-6.27 0-2.78-0.72-4.66-2.5-6.57-1.37-1.46-3.85-3.24-5.5-3.93-1.65-0.7-52.61-23.61-113.25-50.91-97.06-43.71-110.82-49.64-115-49.59-4.07 0.05-20.86 7.35-117.25 50.98zm-41.96 183.43c-0.02 37.11 0.33 59.26 0.96 60.53 0.55 1.1 4.49 4.42 8.75 7.37 4.26 2.96 10.9 7.3 14.75 9.65 3.85 2.35 12.63 7.08 19.5 10.5 6.88 3.42 17.45 8.05 23.5 10.29 6.05 2.24 14.82 5.22 19.5 6.63 4.68 1.4 13.9 3.64 20.5 4.97 6.6 1.33 16.05 2.9 21 3.48 4.95 0.58 14.85 1.34 22 1.7 7.48 0.37 19.37 0.15 28-0.53 8.25-0.65 21.07-2.31 28.5-3.68 7.43-1.37 17.32-3.57 22-4.9 4.68-1.32 12.32-3.72 17-5.33 4.68-1.6 10.86-3.87 13.75-5.03 2.89-1.17 5.48-2.12 5.75-2.12 0.27 0 0.5 7.54 0.5 16.75v16.75c-7.19 3.88-10.87 6.8-12.83 9-1.95 2.2-4.48 6.02-5.61 8.5-1.92 4.19-2.08 6.67-2.36 36-0.16 17.32-0.05 32.51 0.25 33.75 0.3 1.24 1.79 3.39 3.3 4.78l2.75 2.54 51.5-0.07 6.5-5.84v-65.66c-4.26-8.91-7.64-13.56-10.25-16.07-2.61-2.52-6.22-5.11-8.01-5.75l-3.27-1.18-0.02-45c6.63-3.8 13.16-7.97 18.8-11.7 5.64-3.74 10.93-7.81 11.76-9.05 1.3-1.94 1.5-10.3 1.5-61l-0.01-58.75-32 16 0.03 123.5-20.53 10.3c-0.41-101.5-0.85-122.8-1.5-122.8-0.55 0-20.91 9.73-45.25 21.61-24.34 11.89-46.84 22.47-50 23.5-3.16 1.04-8 1.89-10.75 1.89-2.75 0-7.59-0.85-10.75-1.89-3.16-1.04-36.57-16.94-74.25-35.34-37.68-18.4-69.94-34.21-71.71-35.14l-3.21-1.68z"/>
</svg>