<svg version="1.2" xmlns="http://www.w3.org/2000/svg" viewBox="0 0 512 512" width="512" height="512">
	<style>
		.s0 { fill: #ffffff } 
	</style>
	<path id="Path 0" fill-rule="evenodd" class="s0" d="m41 0.08c2.93-0.04 5.9 0.74 8.5 2.23 2.2 1.26 23.13 14.14 46.5 28.62 23.38 14.49 43.85 27.64 45.5 29.22 2.4 2.31 2.96 3.63 2.8 6.62-0.16 3.21-1.25 4.78-15.28 18.73l47.49 47.5c26.12 26.13 47.49 47.95 47.49 48.5 0.01 0.55-9.33 10.34-20.75 21.75-11.41 11.41-21.2 20.75-21.75 20.75-0.55 0-22.38-21.37-96-94.98l-7.5 7.54c-6.44 6.48-8.03 7.58-11.23 7.74-2.82 0.15-4.34-0.41-6.21-2.3-1.36-1.37-14.79-22.3-29.85-46.5-15.06-24.2-28.19-45.58-29.17-47.5-1.25-2.44-1.67-5.02-1.39-8.5 0.3-3.69 1.22-6.05 3.53-9 1.71-2.2 8.68-9.47 15.47-16.15 6.79-6.69 13.47-12.62 14.85-13.19 1.37-0.57 4.52-1.06 7-1.08zm384.5 0.4c8.37 0.23 16.21 1 19.5 1.92 3.18 0.89 6.26 2.5 7.29 3.82 1.08 1.38 1.77 3.87 1.73 6.28-0.06 3.8-0.85 4.78-31.99 36l-0.03 41.5 41.5-0.03 16-15.96c15.22-15.18 16.2-15.97 20-16.03 2.44-0.04 4.85 0.63 6.2 1.73 1.27 1.04 2.87 4.3 3.81 7.79 0.89 3.3 1.88 11.17 2.21 17.5 0.37 7.3 0.12 14.42-0.68 19.5-0.7 4.4-2.46 11.38-3.91 15.5-1.45 4.13-4.67 11.1-7.14 15.5-3.21 5.73-7.33 10.84-14.49 18-7.17 7.17-12.26 11.27-18 14.48-4.4 2.47-10.7 5.46-14 6.65-3.3 1.2-9.49 2.89-13.75 3.77-4.26 0.88-12.36 1.6-18 1.59-5.64 0-13.18-0.49-23.25-2.18l-110.3 110.34c-105.15 105.19-110.28 110.49-109.76 113.35 0.31 1.65 0.84 8.85 1.19 16 0.43 8.76 0.23 15.28-0.62 20-0.69 3.85-2.44 10.38-3.89 14.5-1.45 4.13-4.66 11.06-7.13 15.41-2.47 4.36-7.87 11.51-11.99 15.89-4.13 4.39-10.2 9.91-13.5 12.27-3.3 2.36-9.82 6.07-14.5 8.25-4.67 2.17-11.42 4.72-15 5.65-3.61 0.95-12.28 1.94-19.5 2.24-10.18 0.42-14.85 0.15-21.5-1.23-4.67-0.97-9.29-2.15-10.25-2.62-0.96-0.47-2.37-2.32-3.14-4.11-0.96-2.26-1.11-4.16-0.49-6.25 0.55-1.86 6.75-8.87 31.87-34l0.01-41.5-41.5 0.03-16 15.96c-15.22 15.18-16.2 15.97-20 16.03-2.41 0.04-4.92-0.65-6.3-1.73-1.69-1.31-2.82-4.06-4.23-10.29-1.23-5.46-1.93-12.35-1.94-19.25-0.02-5.91 0.61-14.01 1.38-18 0.78-3.99 2.48-10.18 3.77-13.75 1.29-3.57 4.37-10.1 6.84-14.5 3.21-5.74 7.31-10.83 14.48-18 7.17-7.17 12.26-11.27 18-14.48 4.4-2.47 10.7-5.46 14-6.65 3.3-1.2 9.49-2.89 13.75-3.77 4.26-0.88 12.36-1.6 18-1.59 5.64 0 13.17 0.49 23.25 2.18l110.3-110.34c105.21-105.25 110.28-110.49 109.75-113.35-0.3-1.65-0.84-8.85-1.19-16-0.5-10.28-0.27-14.78 1.09-21.5 0.94-4.67 3.02-11.88 4.61-16 1.6-4.13 4.6-10.38 6.67-13.91 2.07-3.52 7.15-10 11.27-14.39 4.13-4.39 10.2-9.89 13.5-12.22 3.3-2.33 8.7-5.6 12-7.25 3.3-1.66 9.15-3.98 13-5.16 3.85-1.18 9.25-2.55 12-3.05 2.75-0.5 11.3-0.74 19-0.54zm-65.75 262.52c0.14 0 3.96 1.91 8.5 4.23 7.52 3.86 10.87 6.79 37.75 32.91 16.23 15.76 43.5 42.77 60.61 60.01 24.48 24.67 31.98 32.84 35.19 38.35 2.25 3.85 5.35 10.6 6.89 15 2.61 7.46 2.8 9.05 2.77 23.5-0.02 14.32-0.24 16.11-2.8 23.5-1.53 4.4-4.62 11.15-6.88 15-2.27 3.85-7.53 10.41-11.7 14.58-4.17 4.17-10.73 9.43-14.58 11.7-3.85 2.26-10.6 5.35-15 6.88-7.39 2.56-9.18 2.78-23.5 2.8-14.45 0.03-16.04-0.16-23.5-2.77-4.4-1.54-11.15-4.66-15-6.94-5.34-3.15-14.85-11.79-40-36.34-18.15-17.71-45.4-44.74-60.56-60.06-25.81-26.08-27.84-28.39-36.16-44.85l48.86-48.75c26.87-26.81 48.97-48.75 49.11-48.75zm-9.25 94c-0.82 1.65-1.5 4.8-1.5 7 0 2.2 0.63 5.24 1.4 6.75 0.76 1.51 18.65 19.67 39.75 40.34 21.09 20.68 39.36 38.11 40.6 38.75 1.24 0.64 3.94 1.16 6 1.16 2.06-0.01 5.21-0.91 7-2 1.79-1.1 4.15-3.46 5.25-5.25 1.09-1.79 1.99-4.94 2-7 0-2.06-0.62-4.99-1.39-6.5-0.76-1.51-18.65-19.67-39.75-40.35-21.1-20.68-39.37-38.11-40.61-38.75-1.24-0.63-4.16-1.15-6.5-1.15-2.49 0.01-5.6 0.83-7.5 2-1.79 1.1-3.93 3.35-4.75 5z"/>
</svg>